# xmcd CD database file
#
# Track frame offsets:
#	150
#	18483
#	34714
#	57963
#	76526
#	104451
#	123496
#	146493
#	170791
#	195453
#	222910
#	239551
#
# Disc length: 3454 seconds
#
# Revision: 0
# Processed by: cddbd v1.4PL0 Copyright (c) Steve Scherf et al.
# Submitted via: CDex 1.50Beta7
#
DISCID=a40d7c0c
DTITLE=Ann-Kristin Hedmark - It Happend to Me
DYEAR=2002
DGENRE=Jazz
TTITLE0=Comes Love
TTITLE1=Close Your Eyes
TTITLE2=Mister Kelly
TTITLE3=The Old Country
TTITLE4=Love for Sale
TTITLE5=It Could Happen to You
TTITLE6=Autumn is a Fine Time of Year
TTITLE7=Moondance
TTITLE8=Doodlin'
TTITLE9=Tolvdraget ('Round Midnight)
TTITLE10=Wanderer
TTITLE11=Blå Vägen
EXTD=YEAR: 2002
EXTT0=
EXTT1=
EXTT2=
EXTT3=
EXTT4=
EXTT5=
EXTT6=
EXTT7=
EXTT8=
EXTT9=
EXTT10=
EXTT11=
PLAYORDER=
